<svg width="26" height="25" viewBox="0 0 26 25" fill="none" xmlns="http://www.w3.org/2000/svg">
<path d="M10.3274 10.9717H6.01956C5.321 10.9717 4.85529 10.506 4.85529 9.80744V5.49961C4.85529 4.80104 5.321 4.33533 6.01956 4.33533H10.3274C11.026 4.33533 11.4917 4.80104 11.4917 5.49961V9.80744C11.4917 10.506 11.026 10.9717 10.3274 10.9717Z" stroke="#112650" stroke-width="1.10129" stroke-miterlimit="10" stroke-linecap="round" stroke-linejoin="round"/>
<path d="M17.6634 10.9719C15.8006 10.9719 14.4034 9.4583 14.4034 7.71189C14.4034 5.84904 15.917 4.4519 17.6634 4.4519C19.5263 4.4519 20.9234 5.96547 20.9234 7.71189C21.0398 9.4583 19.5263 10.9719 17.6634 10.9719Z" stroke="#112650" stroke-width="1.10129" stroke-miterlimit="10" stroke-linecap="round" stroke-linejoin="round"/>
<path d="M10.3272 20.286H6.01932C5.32075 20.286 4.85504 19.8202 4.85504 19.1217V14.9303C4.85504 14.2317 5.32075 13.766 6.01932 13.766H10.3272C11.0257 13.766 11.4914 14.2317 11.4914 14.9303V19.2381C11.4914 19.8202 11.0257 20.286 10.3272 20.286Z" stroke="#112650" stroke-width="1.10129" stroke-miterlimit="10" stroke-linecap="round" stroke-linejoin="round"/>
<path d="M19.8756 20.286H15.5677C14.8692 20.286 14.4034 19.8202 14.4034 19.1217V14.9303C14.4034 14.2317 14.8692 13.766 15.5677 13.766H19.8756C20.5741 13.766 21.0398 14.2317 21.0398 14.9303V19.2381C21.0398 19.8202 20.4577 20.286 19.8756 20.286Z" stroke="#112650" stroke-width="1.10129" stroke-miterlimit="10" stroke-linecap="round" stroke-linejoin="round"/>
</svg>
