<svg width="25" height="25" viewBox="0 0 25 25" fill="none" xmlns="http://www.w3.org/2000/svg">
<g style="mix-blend-mode:darken">
<rect width="24.2752" height="24.2752" rx="8.00942" fill="#A684CB"/>
<path d="M5.05627 12.2431H7.40983L9.35543 7.59872C9.42211 7.43495 9.53052 7.29802 9.66645 7.20586C9.80238 7.1137 9.9595 7.07061 10.1172 7.08224C10.2749 7.09387 10.4259 7.15968 10.5504 7.27103C10.6748 7.38239 10.7669 7.53411 10.8146 7.70631L13.1682 15.946C13.2139 16.112 13.3009 16.2593 13.4185 16.3698C13.5362 16.4803 13.6795 16.5493 13.8309 16.5683C13.9823 16.5873 14.1352 16.5555 14.2711 16.4769C14.407 16.3982 14.5199 16.2761 14.596 16.1253L16.8633 11.7051H19.2168" stroke="white" stroke-width="1.00118" stroke-linecap="round" stroke-linejoin="round"/>
</g>
</svg>
