<svg width="26" height="26" viewBox="0 0 26 26" fill="none" xmlns="http://www.w3.org/2000/svg">
<rect x="1" y="1" width="24.2752" height="24.2752" rx="8.00942" stroke="#888F9D" stroke-width="1.00118"/>
<path d="M11.4294 8.77872C10.196 8.99152 9.07915 9.63765 8.27987 10.6008C7.48059 11.5639 7.05143 12.7808 7.06965 14.0322C7.10459 15.3933 7.66088 16.689 8.62364 17.6518C9.5864 18.6145 10.8821 19.1708 12.2432 19.2058C13.4947 19.224 14.7115 18.7948 15.6746 17.9955C16.6378 17.1963 17.2839 16.0794 17.4967 14.846C17.5137 14.735 17.5062 14.6215 17.4747 14.5137C17.4432 14.4059 17.3885 14.3062 17.3144 14.2217C17.2403 14.1373 17.1486 14.07 17.0458 14.0247C16.943 13.9794 16.8315 13.9572 16.7192 13.9596H13.0861C12.8792 13.9576 12.6815 13.8741 12.5359 13.7271C12.3903 13.5802 12.3086 13.3817 12.3086 13.1748V9.54168C12.3075 9.43165 12.283 9.32311 12.2369 9.22323C12.1907 9.12336 12.1238 9.03442 12.0407 8.9623C11.9576 8.89019 11.8602 8.83653 11.7548 8.80488C11.6494 8.77324 11.5385 8.76432 11.4294 8.77872Z" stroke="#888F9D" stroke-width="0.864174" stroke-linecap="round" stroke-linejoin="round"/>
<path d="M14.9913 7.07842C16.0637 7.26151 17.0527 7.77297 17.8219 8.54219C18.5911 9.31141 19.1026 10.3004 19.2857 11.3728C19.3014 11.4836 19.293 11.5966 19.261 11.7039C19.229 11.8112 19.1742 11.9103 19.1004 11.9945C19.0266 12.0786 18.9355 12.1459 18.8332 12.1916C18.731 12.2373 18.6202 12.2604 18.5082 12.2592H14.8751C14.667 12.2592 14.4674 12.1766 14.3202 12.0294C14.173 11.8822 14.0903 11.6826 14.0903 11.4745V7.84138C14.091 7.72922 14.1159 7.61854 14.1634 7.51692C14.2109 7.41531 14.2798 7.32517 14.3654 7.25269C14.451 7.18021 14.5512 7.12711 14.6593 7.09703C14.7673 7.06695 14.8806 7.0606 14.9913 7.07842Z" stroke="#888F9D" stroke-width="0.864174" stroke-linecap="round" stroke-linejoin="round"/>
</svg>
