<svg width="25" height="25" viewBox="0 0 25 25" fill="none" xmlns="http://www.w3.org/2000/svg">
<g style="mix-blend-mode:darken">
<rect width="24.2752" height="24.2752" rx="8.00942" fill="#A684CB"/>
<path d="M10.4294 7.77872C9.19603 7.99152 8.07915 8.63765 7.27987 9.60078C6.48059 10.5639 6.05143 11.7808 6.06965 13.0322C6.10459 14.3933 6.66088 15.689 7.62364 16.6518C8.5864 17.6145 9.88211 18.1708 11.2432 18.2058C12.4947 18.224 13.7115 17.7948 14.6746 16.9955C15.6378 16.1963 16.2839 15.0794 16.4967 13.846C16.5137 13.735 16.5062 13.6215 16.4747 13.5137C16.4432 13.4059 16.3885 13.3062 16.3144 13.2217C16.2403 13.1373 16.1486 13.07 16.0458 13.0247C15.943 12.9794 15.8315 12.9572 15.7192 12.9596H12.0861C11.8792 12.9576 11.6815 12.8741 11.5359 12.7271C11.3903 12.5802 11.3086 12.3817 11.3086 12.1748V8.54168C11.3075 8.43165 11.283 8.32311 11.2369 8.22323C11.1907 8.12336 11.1238 8.03442 11.0407 7.9623C10.9576 7.89019 10.8602 7.83653 10.7548 7.80488C10.6494 7.77324 10.5385 7.76432 10.4294 7.77872Z" stroke="white" stroke-linecap="round" stroke-linejoin="round"/>
<path d="M13.9913 6.07842C15.0637 6.26151 16.0527 6.77297 16.8219 7.54219C17.5911 8.31141 18.1026 9.30045 18.2857 10.3728C18.3014 10.4836 18.293 10.5966 18.261 10.7039C18.229 10.8112 18.1742 10.9103 18.1004 10.9945C18.0266 11.0786 17.9355 11.1459 17.8332 11.1916C17.731 11.2373 17.6202 11.2604 17.5082 11.2592H13.8751C13.667 11.2592 13.4674 11.1766 13.3202 11.0294C13.173 10.8822 13.0903 10.6826 13.0903 10.4745V6.84138C13.091 6.72922 13.1159 6.61854 13.1634 6.51692C13.2109 6.41531 13.2798 6.32517 13.3654 6.25269C13.451 6.18021 13.5512 6.12711 13.6593 6.09703C13.7673 6.06695 13.8806 6.0606 13.9913 6.07842Z" stroke="white" stroke-linecap="round" stroke-linejoin="round"/>
</g>
</svg>
