<svg width="18" height="18" viewBox="0 0 18 18" fill="none" xmlns="http://www.w3.org/2000/svg">
<path d="M14.3226 15.5992C14.3226 16.4681 13.5623 17.2284 12.6934 17.2284H2.4837C1.61479 17.2284 0.854492 16.4681 0.854492 15.5992V6.367C2.91816 4.30334 4.11291 3.10859 6.17657 1.04492H12.5848C13.4537 1.04492 14.214 1.80522 14.214 2.67413V5.93255" stroke="#9262BC" stroke-width="1.10129" stroke-miterlimit="10" stroke-linecap="round" stroke-linejoin="round"/>
<path d="M6.28687 1.04498V4.73786C6.28687 5.60677 5.52657 6.36707 4.65766 6.36707H0.964783" stroke="#9262BC" stroke-width="1.10129" stroke-miterlimit="10" stroke-linecap="round" stroke-linejoin="round"/>
<path d="M14.1328 12.1907C15.0963 11.0416 14.9458 9.32888 13.7966 8.36536C12.6474 7.40183 10.9348 7.55234 9.97124 8.70152C9.00771 9.85069 9.15822 11.5634 10.3074 12.5269C11.4566 13.4904 13.1693 13.3399 14.1328 12.1907Z" stroke="#9262BC" stroke-width="1.10129" stroke-miterlimit="10" stroke-linecap="round" stroke-linejoin="round"/>
<path d="M14.3226 12.0153L16.7121 13.5359" stroke="#9262BC" stroke-width="1.10129" stroke-miterlimit="10" stroke-linecap="round" stroke-linejoin="round"/>
</svg>
