<svg width="26" height="25" viewBox="0 0 26 25" fill="none" xmlns="http://www.w3.org/2000/svg">
<path d="M14.3912 9.6438C14.3912 9.6438 13.5953 8.44993 12.3019 9.14635C11.1081 9.6438 11.2075 11.4346 12.9983 11.7331" stroke="#112650" stroke-width="1.10129" stroke-miterlimit="10" stroke-linecap="round" stroke-linejoin="round"/>
<path d="M11.5064 13.8222C11.5064 13.8222 12.3023 15.016 13.5957 14.3196C14.7895 13.7227 14.69 12.0314 12.8992 11.7329" stroke="#112650" stroke-width="1.10129" stroke-miterlimit="10" stroke-linecap="round" stroke-linejoin="round"/>
<path d="M13.1007 8.9474V7.85303" stroke="#112650" stroke-width="1.10129" stroke-miterlimit="10" stroke-linecap="round" stroke-linejoin="round"/>
<path d="M13.1007 15.613V14.5186" stroke="#112650" stroke-width="1.10129" stroke-miterlimit="10" stroke-linecap="round" stroke-linejoin="round"/>
<path d="M18.0701 6.16094C15.7819 3.9722 12.2003 3.47475 9.21565 5.06657C6.23099 6.75788 4.83815 10.041 5.53457 13.2246" stroke="#112650" stroke-width="1.10129" stroke-miterlimit="10" stroke-linecap="round" stroke-linejoin="round"/>
<path d="M7.72351 17.3037C10.1112 19.4924 13.6928 19.9899 16.578 18.3981C19.5627 16.7067 20.9555 13.4236 20.2591 10.24" stroke="#112650" stroke-width="1.10129" stroke-miterlimit="10" stroke-linecap="round" stroke-linejoin="round"/>
<path d="M6.9282 11.6329L5.43587 13.3242L3.84406 11.8319" stroke="#112650" stroke-width="1.10129" stroke-miterlimit="10" stroke-linecap="round" stroke-linejoin="round"/>
<path d="M18.9676 11.9314L20.3604 10.2401L22.0517 11.633" stroke="#112650" stroke-width="1.10129" stroke-miterlimit="10" stroke-linecap="round" stroke-linejoin="round"/>
</svg>
